<svg xmlns="http://www.w3.org/2000/svg" version="1.1" xmlns:xlink="http://www.w3.org/1999/xlink" xmlns:svgjs="http://svgjs.dev/svgjs" width="3200" height="2880" preserveAspectRatio="none" viewBox="0 0 3200 2880"><g mask="url(&quot;#SvgjsMask3563&quot;)" fill="none"><use xlink:href="#SvgjsG3579" transform="translate(0, 0)" fill="rgba(245, 158, 11, 0.08)"></use><use xlink:href="#SvgjsG3579" transform="translate(0, 216)" fill="rgba(245, 158, 11, 0.08)"></use><use xlink:href="#SvgjsG3579" transform="translate(0, 432)" fill="rgba(245, 158, 11, 0.08)"></use><use xlink:href="#SvgjsG3579" transform="translate(0, 648)" fill="rgba(245, 158, 11, 0.08)"></use><use xlink:href="#SvgjsG3579" transform="translate(0, 864)" fill="rgba(245, 158, 11, 0.08)"></use><use xlink:href="#SvgjsG3579" transform="translate(0, 1080)" fill="rgba(245, 158, 11, 0.08)"></use><use xlink:href="#SvgjsG3579" transform="translate(0, 1296)" fill="rgba(245, 158, 11, 0.08)"></use><use xlink:href="#SvgjsG3579" transform="translate(0, 1512)" fill="rgba(245, 158, 11, 0.08)"></use><use xlink:href="#SvgjsG3579" transform="translate(0, 1728)" fill="rgba(245, 158, 11, 0.08)"></use><use xlink:href="#SvgjsG3579" transform="translate(0, 1944)" fill="rgba(245, 158, 11, 0.08)"></use><use xlink:href="#SvgjsG3579" transform="translate(0, 2160)" fill="rgba(245, 158, 11, 0.08)"></use><use xlink:href="#SvgjsG3579" transform="translate(0, 2376)" fill="rgba(245, 158, 11, 0.08)"></use><use xlink:href="#SvgjsG3579" transform="translate(0, 2592)" fill="rgba(245, 158, 11, 0.08)"></use><use xlink:href="#SvgjsG3579" transform="translate(0, 2808)" fill="rgba(245, 158, 11, 0.08)"></use><use xlink:href="#SvgjsG3579" transform="translate(216, 0)" fill="rgba(245, 158, 11, 0.08)"></use><use xlink:href="#SvgjsG3579" transform="translate(216, 216)" fill="rgba(245, 158, 11, 0.08)"></use><use xlink:href="#SvgjsG3579" transform="translate(216, 432)" fill="rgba(245, 158, 11, 0.08)"></use><use xlink:href="#SvgjsG3579" transform="translate(216, 648)" fill="rgba(245, 158, 11, 0.08)"></use><use xlink:href="#SvgjsG3579" transform="translate(216, 864)" fill="rgba(245, 158, 11, 0.08)"></use><use xlink:href="#SvgjsG3579" transform="translate(216, 1080)" fill="rgba(245, 158, 11, 0.08)"></use><use xlink:href="#SvgjsG3579" transform="translate(216, 1296)" fill="rgba(245, 158, 11, 0.08)"></use><use xlink:href="#SvgjsG3579" transform="translate(216, 1512)" fill="rgba(245, 158, 11, 0.08)"></use><use xlink:href="#SvgjsG3579" transform="translate(216, 1728)" fill="rgba(245, 158, 11, 0.08)"></use><use xlink:href="#SvgjsG3579" transform="translate(216, 1944)" fill="rgba(245, 158, 11, 0.08)"></use><use xlink:href="#SvgjsG3579" transform="translate(216, 2160)" fill="rgba(245, 158, 11, 0.08)"></use><use xlink:href="#SvgjsG3579" transform="translate(216, 2376)" fill="rgba(245, 158, 11, 0.08)"></use><use xlink:href="#SvgjsG3579" transform="translate(216, 2592)" fill="rgba(245, 158, 11, 0.08)"></use><use xlink:href="#SvgjsG3579" transform="translate(216, 2808)" fill="rgba(245, 158, 11, 0.08)"></use><use xlink:href="#SvgjsG3579" transform="translate(432, 0)" fill="rgba(245, 158, 11, 0.08)"></use><use xlink:href="#SvgjsG3579" transform="translate(432, 216)" fill="rgba(245, 158, 11, 0.08)"></use><use xlink:href="#SvgjsG3579" transform="translate(432, 432)" fill="rgba(245, 158, 11, 0.08)"></use><use xlink:href="#SvgjsG3579" transform="translate(432, 648)" fill="rgba(245, 158, 11, 0.08)"></use><use xlink:href="#SvgjsG3579" transform="translate(432, 864)" fill="rgba(245, 158, 11, 0.08)"></use><use xlink:href="#SvgjsG3579" transform="translate(432, 1080)" fill="rgba(245, 158, 11, 0.08)"></use><use xlink:href="#SvgjsG3579" transform="translate(432, 1296)" fill="rgba(245, 158, 11, 0.08)"></use><use xlink:href="#SvgjsG3579" transform="translate(432, 1512)" fill="rgba(245, 158, 11, 0.08)"></use><use xlink:href="#SvgjsG3579" transform="translate(432, 1728)" fill="rgba(245, 158, 11, 0.08)"></use><use xlink:href="#SvgjsG3579" transform="translate(432, 1944)" fill="rgba(245, 158, 11, 0.08)"></use><use xlink:href="#SvgjsG3579" transform="translate(432, 2160)" fill="rgba(245, 158, 11, 0.08)"></use><use xlink:href="#SvgjsG3579" transform="translate(432, 2376)" fill="rgba(245, 158, 11, 0.08)"></use><use xlink:href="#SvgjsG3579" transform="translate(432, 2592)" fill="rgba(245, 158, 11, 0.08)"></use><use xlink:href="#SvgjsG3579" transform="translate(432, 2808)" fill="rgba(245, 158, 11, 0.08)"></use><use xlink:href="#SvgjsG3579" transform="translate(648, 0)" fill="rgba(245, 158, 11, 0.08)"></use><use xlink:href="#SvgjsG3579" transform="translate(648, 216)" fill="rgba(245, 158, 11, 0.08)"></use><use xlink:href="#SvgjsG3579" transform="translate(648, 432)" fill="rgba(245, 158, 11, 0.08)"></use><use xlink:href="#SvgjsG3579" transform="translate(648, 648)" fill="rgba(245, 158, 11, 0.08)"></use><use xlink:href="#SvgjsG3579" transform="translate(648, 864)" fill="rgba(245, 158, 11, 0.08)"></use><use xlink:href="#SvgjsG3579" transform="translate(648, 1080)" fill="rgba(245, 158, 11, 0.08)"></use><use xlink:href="#SvgjsG3579" transform="translate(648, 1296)" fill="rgba(245, 158, 11, 0.08)"></use><use xlink:href="#SvgjsG3579" transform="translate(648, 1512)" fill="rgba(245, 158, 11, 0.08)"></use><use xlink:href="#SvgjsG3579" transform="translate(648, 1728)" fill="rgba(245, 158, 11, 0.08)"></use><use xlink:href="#SvgjsG3579" transform="translate(648, 1944)" fill="rgba(245, 158, 11, 0.08)"></use><use xlink:href="#SvgjsG3579" transform="translate(648, 2160)" fill="rgba(245, 158, 11, 0.08)"></use><use xlink:href="#SvgjsG3579" transform="translate(648, 2376)" fill="rgba(245, 158, 11, 0.08)"></use><use xlink:href="#SvgjsG3579" transform="translate(648, 2592)" fill="rgba(245, 158, 11, 0.08)"></use><use xlink:href="#SvgjsG3579" transform="translate(648, 2808)" fill="rgba(245, 158, 11, 0.08)"></use><use xlink:href="#SvgjsG3579" transform="translate(864, 0)" fill="rgba(245, 158, 11, 0.08)"></use><use xlink:href="#SvgjsG3579" transform="translate(864, 216)" fill="rgba(245, 158, 11, 0.08)"></use><use xlink:href="#SvgjsG3579" transform="translate(864, 432)" fill="rgba(245, 158, 11, 0.08)"></use><use xlink:href="#SvgjsG3579" transform="translate(864, 648)" fill="rgba(245, 158, 11, 0.08)"></use><use xlink:href="#SvgjsG3579" transform="translate(864, 864)" fill="rgba(245, 158, 11, 0.08)"></use><use xlink:href="#SvgjsG3579" transform="translate(864, 1080)" fill="rgba(245, 158, 11, 0.08)"></use><use xlink:href="#SvgjsG3579" transform="translate(864, 1296)" fill="rgba(245, 158, 11, 0.08)"></use><use xlink:href="#SvgjsG3579" transform="translate(864, 1512)" fill="rgba(245, 158, 11, 0.08)"></use><use xlink:href="#SvgjsG3579" transform="translate(864, 1728)" fill="rgba(245, 158, 11, 0.08)"></use><use xlink:href="#SvgjsG3579" transform="translate(864, 1944)" fill="rgba(245, 158, 11, 0.08)"></use><use xlink:href="#SvgjsG3579" transform="translate(864, 2160)" fill="rgba(245, 158, 11, 0.08)"></use><use xlink:href="#SvgjsG3579" transform="translate(864, 2376)" fill="rgba(245, 158, 11, 0.08)"></use><use xlink:href="#SvgjsG3579" transform="translate(864, 2592)" fill="rgba(245, 158, 11, 0.08)"></use><use xlink:href="#SvgjsG3579" transform="translate(864, 2808)" fill="rgba(245, 158, 11, 0.08)"></use><use xlink:href="#SvgjsG3579" transform="translate(1080, 0)" fill="rgba(245, 158, 11, 0.08)"></use><use xlink:href="#SvgjsG3579" transform="translate(1080, 216)" fill="rgba(245, 158, 11, 0.08)"></use><use xlink:href="#SvgjsG3579" transform="translate(1080, 432)" fill="rgba(245, 158, 11, 0.08)"></use><use xlink:href="#SvgjsG3579" transform="translate(1080, 648)" fill="rgba(245, 158, 11, 0.08)"></use><use xlink:href="#SvgjsG3579" transform="translate(1080, 864)" fill="rgba(245, 158, 11, 0.08)"></use><use xlink:href="#SvgjsG3579" transform="translate(1080, 1080)" fill="rgba(245, 158, 11, 0.08)"></use><use xlink:href="#SvgjsG3579" transform="translate(1080, 1296)" fill="rgba(245, 158, 11, 0.08)"></use><use xlink:href="#SvgjsG3579" transform="translate(1080, 1512)" fill="rgba(245, 158, 11, 0.08)"></use><use xlink:href="#SvgjsG3579" transform="translate(1080, 1728)" fill="rgba(245, 158, 11, 0.08)"></use><use xlink:href="#SvgjsG3579" transform="translate(1080, 1944)" fill="rgba(245, 158, 11, 0.08)"></use><use xlink:href="#SvgjsG3579" transform="translate(1080, 2160)" fill="rgba(245, 158, 11, 0.08)"></use><use xlink:href="#SvgjsG3579" transform="translate(1080, 2376)" fill="rgba(245, 158, 11, 0.08)"></use><use xlink:href="#SvgjsG3579" transform="translate(1080, 2592)" fill="rgba(245, 158, 11, 0.08)"></use><use xlink:href="#SvgjsG3579" transform="translate(1080, 2808)" fill="rgba(245, 158, 11, 0.08)"></use><use xlink:href="#SvgjsG3579" transform="translate(1296, 0)" fill="rgba(245, 158, 11, 0.08)"></use><use xlink:href="#SvgjsG3579" transform="translate(1296, 216)" fill="rgba(245, 158, 11, 0.08)"></use><use xlink:href="#SvgjsG3579" transform="translate(1296, 432)" fill="rgba(245, 158, 11, 0.08)"></use><use xlink:href="#SvgjsG3579" transform="translate(1296, 648)" fill="rgba(245, 158, 11, 0.08)"></use><use xlink:href="#SvgjsG3579" transform="translate(1296, 864)" fill="rgba(245, 158, 11, 0.08)"></use><use xlink:href="#SvgjsG3579" transform="translate(1296, 1080)" fill="rgba(245, 158, 11, 0.08)"></use><use xlink:href="#SvgjsG3579" transform="translate(1296, 1296)" fill="rgba(245, 158, 11, 0.08)"></use><use xlink:href="#SvgjsG3579" transform="translate(1296, 1512)" fill="rgba(245, 158, 11, 0.08)"></use><use xlink:href="#SvgjsG3579" transform="translate(1296, 1728)" fill="rgba(245, 158, 11, 0.08)"></use><use xlink:href="#SvgjsG3579" transform="translate(1296, 1944)" fill="rgba(245, 158, 11, 0.08)"></use><use xlink:href="#SvgjsG3579" transform="translate(1296, 2160)" fill="rgba(245, 158, 11, 0.08)"></use><use xlink:href="#SvgjsG3579" transform="translate(1296, 2376)" fill="rgba(245, 158, 11, 0.08)"></use><use xlink:href="#SvgjsG3579" transform="translate(1296, 2592)" fill="rgba(245, 158, 11, 0.08)"></use><use xlink:href="#SvgjsG3579" transform="translate(1296, 2808)" fill="rgba(245, 158, 11, 0.08)"></use><use xlink:href="#SvgjsG3579" transform="translate(1512, 0)" fill="rgba(245, 158, 11, 0.08)"></use><use xlink:href="#SvgjsG3579" transform="translate(1512, 216)" fill="rgba(245, 158, 11, 0.08)"></use><use xlink:href="#SvgjsG3579" transform="translate(1512, 432)" fill="rgba(245, 158, 11, 0.08)"></use><use xlink:href="#SvgjsG3579" transform="translate(1512, 648)" fill="rgba(245, 158, 11, 0.08)"></use><use xlink:href="#SvgjsG3579" transform="translate(1512, 864)" fill="rgba(245, 158, 11, 0.08)"></use><use xlink:href="#SvgjsG3579" transform="translate(1512, 1080)" fill="rgba(245, 158, 11, 0.08)"></use><use xlink:href="#SvgjsG3579" transform="translate(1512, 1296)" fill="rgba(245, 158, 11, 0.08)"></use><use xlink:href="#SvgjsG3579" transform="translate(1512, 1512)" fill="rgba(245, 158, 11, 0.08)"></use><use xlink:href="#SvgjsG3579" transform="translate(1512, 1728)" fill="rgba(245, 158, 11, 0.08)"></use><use xlink:href="#SvgjsG3579" transform="translate(1512, 1944)" fill="rgba(245, 158, 11, 0.08)"></use><use xlink:href="#SvgjsG3579" transform="translate(1512, 2160)" fill="rgba(245, 158, 11, 0.08)"></use><use xlink:href="#SvgjsG3579" transform="translate(1512, 2376)" fill="rgba(245, 158, 11, 0.08)"></use><use xlink:href="#SvgjsG3579" transform="translate(1512, 2592)" fill="rgba(245, 158, 11, 0.08)"></use><use xlink:href="#SvgjsG3579" transform="translate(1512, 2808)" fill="rgba(245, 158, 11, 0.08)"></use><use xlink:href="#SvgjsG3579" transform="translate(1728, 0)" fill="rgba(245, 158, 11, 0.08)"></use><use xlink:href="#SvgjsG3579" transform="translate(1728, 216)" fill="rgba(245, 158, 11, 0.08)"></use><use xlink:href="#SvgjsG3579" transform="translate(1728, 432)" fill="rgba(245, 158, 11, 0.08)"></use><use xlink:href="#SvgjsG3579" transform="translate(1728, 648)" fill="rgba(245, 158, 11, 0.08)"></use><use xlink:href="#SvgjsG3579" transform="translate(1728, 864)" fill="rgba(245, 158, 11, 0.08)"></use><use xlink:href="#SvgjsG3579" transform="translate(1728, 1080)" fill="rgba(245, 158, 11, 0.08)"></use><use xlink:href="#SvgjsG3579" transform="translate(1728, 1296)" fill="rgba(245, 158, 11, 0.08)"></use><use xlink:href="#SvgjsG3579" transform="translate(1728, 1512)" fill="rgba(245, 158, 11, 0.08)"></use><use xlink:href="#SvgjsG3579" transform="translate(1728, 1728)" fill="rgba(245, 158, 11, 0.08)"></use><use xlink:href="#SvgjsG3579" transform="translate(1728, 1944)" fill="rgba(245, 158, 11, 0.08)"></use><use xlink:href="#SvgjsG3579" transform="translate(1728, 2160)" fill="rgba(245, 158, 11, 0.08)"></use><use xlink:href="#SvgjsG3579" transform="translate(1728, 2376)" fill="rgba(245, 158, 11, 0.08)"></use><use xlink:href="#SvgjsG3579" transform="translate(1728, 2592)" fill="rgba(245, 158, 11, 0.08)"></use><use xlink:href="#SvgjsG3579" transform="translate(1728, 2808)" fill="rgba(245, 158, 11, 0.08)"></use><use xlink:href="#SvgjsG3579" transform="translate(1944, 0)" fill="rgba(245, 158, 11, 0.08)"></use><use xlink:href="#SvgjsG3579" transform="translate(1944, 216)" fill="rgba(245, 158, 11, 0.08)"></use><use xlink:href="#SvgjsG3579" transform="translate(1944, 432)" fill="rgba(245, 158, 11, 0.08)"></use><use xlink:href="#SvgjsG3579" transform="translate(1944, 648)" fill="rgba(245, 158, 11, 0.08)"></use><use xlink:href="#SvgjsG3579" transform="translate(1944, 864)" fill="rgba(245, 158, 11, 0.08)"></use><use xlink:href="#SvgjsG3579" transform="translate(1944, 1080)" fill="rgba(245, 158, 11, 0.08)"></use><use xlink:href="#SvgjsG3579" transform="translate(1944, 1296)" fill="rgba(245, 158, 11, 0.08)"></use><use xlink:href="#SvgjsG3579" transform="translate(1944, 1512)" fill="rgba(245, 158, 11, 0.08)"></use><use xlink:href="#SvgjsG3579" transform="translate(1944, 1728)" fill="rgba(245, 158, 11, 0.08)"></use><use xlink:href="#SvgjsG3579" transform="translate(1944, 1944)" fill="rgba(245, 158, 11, 0.08)"></use><use xlink:href="#SvgjsG3579" transform="translate(1944, 2160)" fill="rgba(245, 158, 11, 0.08)"></use><use xlink:href="#SvgjsG3579" transform="translate(1944, 2376)" fill="rgba(245, 158, 11, 0.08)"></use><use xlink:href="#SvgjsG3579" transform="translate(1944, 2592)" fill="rgba(245, 158, 11, 0.08)"></use><use xlink:href="#SvgjsG3579" transform="translate(1944, 2808)" fill="rgba(245, 158, 11, 0.08)"></use><use xlink:href="#SvgjsG3579" transform="translate(2160, 0)" fill="rgba(245, 158, 11, 0.08)"></use><use xlink:href="#SvgjsG3579" transform="translate(2160, 216)" fill="rgba(245, 158, 11, 0.08)"></use><use xlink:href="#SvgjsG3579" transform="translate(2160, 432)" fill="rgba(245, 158, 11, 0.08)"></use><use xlink:href="#SvgjsG3579" transform="translate(2160, 648)" fill="rgba(245, 158, 11, 0.08)"></use><use xlink:href="#SvgjsG3579" transform="translate(2160, 864)" fill="rgba(245, 158, 11, 0.08)"></use><use xlink:href="#SvgjsG3579" transform="translate(2160, 1080)" fill="rgba(245, 158, 11, 0.08)"></use><use xlink:href="#SvgjsG3579" transform="translate(2160, 1296)" fill="rgba(245, 158, 11, 0.08)"></use><use xlink:href="#SvgjsG3579" transform="translate(2160, 1512)" fill="rgba(245, 158, 11, 0.08)"></use><use xlink:href="#SvgjsG3579" transform="translate(2160, 1728)" fill="rgba(245, 158, 11, 0.08)"></use><use xlink:href="#SvgjsG3579" transform="translate(2160, 1944)" fill="rgba(245, 158, 11, 0.08)"></use><use xlink:href="#SvgjsG3579" transform="translate(2160, 2160)" fill="rgba(245, 158, 11, 0.08)"></use><use xlink:href="#SvgjsG3579" transform="translate(2160, 2376)" fill="rgba(245, 158, 11, 0.08)"></use><use xlink:href="#SvgjsG3579" transform="translate(2160, 2592)" fill="rgba(245, 158, 11, 0.08)"></use><use xlink:href="#SvgjsG3579" transform="translate(2160, 2808)" fill="rgba(245, 158, 11, 0.08)"></use><use xlink:href="#SvgjsG3579" transform="translate(2376, 0)" fill="rgba(245, 158, 11, 0.08)"></use><use xlink:href="#SvgjsG3579" transform="translate(2376, 216)" fill="rgba(245, 158, 11, 0.08)"></use><use xlink:href="#SvgjsG3579" transform="translate(2376, 432)" fill="rgba(245, 158, 11, 0.08)"></use><use xlink:href="#SvgjsG3579" transform="translate(2376, 648)" fill="rgba(245, 158, 11, 0.08)"></use><use xlink:href="#SvgjsG3579" transform="translate(2376, 864)" fill="rgba(245, 158, 11, 0.08)"></use><use xlink:href="#SvgjsG3579" transform="translate(2376, 1080)" fill="rgba(245, 158, 11, 0.08)"></use><use xlink:href="#SvgjsG3579" transform="translate(2376, 1296)" fill="rgba(245, 158, 11, 0.08)"></use><use xlink:href="#SvgjsG3579" transform="translate(2376, 1512)" fill="rgba(245, 158, 11, 0.08)"></use><use xlink:href="#SvgjsG3579" transform="translate(2376, 1728)" fill="rgba(245, 158, 11, 0.08)"></use><use xlink:href="#SvgjsG3579" transform="translate(2376, 1944)" fill="rgba(245, 158, 11, 0.08)"></use><use xlink:href="#SvgjsG3579" transform="translate(2376, 2160)" fill="rgba(245, 158, 11, 0.08)"></use><use xlink:href="#SvgjsG3579" transform="translate(2376, 2376)" fill="rgba(245, 158, 11, 0.08)"></use><use xlink:href="#SvgjsG3579" transform="translate(2376, 2592)" fill="rgba(245, 158, 11, 0.08)"></use><use xlink:href="#SvgjsG3579" transform="translate(2376, 2808)" fill="rgba(245, 158, 11, 0.08)"></use><use xlink:href="#SvgjsG3579" transform="translate(2592, 0)" fill="rgba(245, 158, 11, 0.08)"></use><use xlink:href="#SvgjsG3579" transform="translate(2592, 216)" fill="rgba(245, 158, 11, 0.08)"></use><use xlink:href="#SvgjsG3579" transform="translate(2592, 432)" fill="rgba(245, 158, 11, 0.08)"></use><use xlink:href="#SvgjsG3579" transform="translate(2592, 648)" fill="rgba(245, 158, 11, 0.08)"></use><use xlink:href="#SvgjsG3579" transform="translate(2592, 864)" fill="rgba(245, 158, 11, 0.08)"></use><use xlink:href="#SvgjsG3579" transform="translate(2592, 1080)" fill="rgba(245, 158, 11, 0.08)"></use><use xlink:href="#SvgjsG3579" transform="translate(2592, 1296)" fill="rgba(245, 158, 11, 0.08)"></use><use xlink:href="#SvgjsG3579" transform="translate(2592, 1512)" fill="rgba(245, 158, 11, 0.08)"></use><use xlink:href="#SvgjsG3579" transform="translate(2592, 1728)" fill="rgba(245, 158, 11, 0.08)"></use><use xlink:href="#SvgjsG3579" transform="translate(2592, 1944)" fill="rgba(245, 158, 11, 0.08)"></use><use xlink:href="#SvgjsG3579" transform="translate(2592, 2160)" fill="rgba(245, 158, 11, 0.08)"></use><use xlink:href="#SvgjsG3579" transform="translate(2592, 2376)" fill="rgba(245, 158, 11, 0.08)"></use><use xlink:href="#SvgjsG3579" transform="translate(2592, 2592)" fill="rgba(245, 158, 11, 0.08)"></use><use xlink:href="#SvgjsG3579" transform="translate(2592, 2808)" fill="rgba(245, 158, 11, 0.08)"></use><use xlink:href="#SvgjsG3579" transform="translate(2808, 0)" fill="rgba(245, 158, 11, 0.08)"></use><use xlink:href="#SvgjsG3579" transform="translate(2808, 216)" fill="rgba(245, 158, 11, 0.08)"></use><use xlink:href="#SvgjsG3579" transform="translate(2808, 432)" fill="rgba(245, 158, 11, 0.08)"></use><use xlink:href="#SvgjsG3579" transform="translate(2808, 648)" fill="rgba(245, 158, 11, 0.08)"></use><use xlink:href="#SvgjsG3579" transform="translate(2808, 864)" fill="rgba(245, 158, 11, 0.08)"></use><use xlink:href="#SvgjsG3579" transform="translate(2808, 1080)" fill="rgba(245, 158, 11, 0.08)"></use><use xlink:href="#SvgjsG3579" transform="translate(2808, 1296)" fill="rgba(245, 158, 11, 0.08)"></use><use xlink:href="#SvgjsG3579" transform="translate(2808, 1512)" fill="rgba(245, 158, 11, 0.08)"></use><use xlink:href="#SvgjsG3579" transform="translate(2808, 1728)" fill="rgba(245, 158, 11, 0.08)"></use><use xlink:href="#SvgjsG3579" transform="translate(2808, 1944)" fill="rgba(245, 158, 11, 0.08)"></use><use xlink:href="#SvgjsG3579" transform="translate(2808, 2160)" fill="rgba(245, 158, 11, 0.08)"></use><use xlink:href="#SvgjsG3579" transform="translate(2808, 2376)" fill="rgba(245, 158, 11, 0.08)"></use><use xlink:href="#SvgjsG3579" transform="translate(2808, 2592)" fill="rgba(245, 158, 11, 0.08)"></use><use xlink:href="#SvgjsG3579" transform="translate(2808, 2808)" fill="rgba(245, 158, 11, 0.08)"></use><use xlink:href="#SvgjsG3579" transform="translate(3024, 0)" fill="rgba(245, 158, 11, 0.08)"></use><use xlink:href="#SvgjsG3579" transform="translate(3024, 216)" fill="rgba(245, 158, 11, 0.08)"></use><use xlink:href="#SvgjsG3579" transform="translate(3024, 432)" fill="rgba(245, 158, 11, 0.08)"></use><use xlink:href="#SvgjsG3579" transform="translate(3024, 648)" fill="rgba(245, 158, 11, 0.08)"></use><use xlink:href="#SvgjsG3579" transform="translate(3024, 864)" fill="rgba(245, 158, 11, 0.08)"></use><use xlink:href="#SvgjsG3579" transform="translate(3024, 1080)" fill="rgba(245, 158, 11, 0.08)"></use><use xlink:href="#SvgjsG3579" transform="translate(3024, 1296)" fill="rgba(245, 158, 11, 0.08)"></use><use xlink:href="#SvgjsG3579" transform="translate(3024, 1512)" fill="rgba(245, 158, 11, 0.08)"></use><use xlink:href="#SvgjsG3579" transform="translate(3024, 1728)" fill="rgba(245, 158, 11, 0.08)"></use><use xlink:href="#SvgjsG3579" transform="translate(3024, 1944)" fill="rgba(245, 158, 11, 0.08)"></use><use xlink:href="#SvgjsG3579" transform="translate(3024, 2160)" fill="rgba(245, 158, 11, 0.08)"></use><use xlink:href="#SvgjsG3579" transform="translate(3024, 2376)" fill="rgba(245, 158, 11, 0.08)"></use><use xlink:href="#SvgjsG3579" transform="translate(3024, 2592)" fill="rgba(245, 158, 11, 0.08)"></use><use xlink:href="#SvgjsG3579" transform="translate(3024, 2808)" fill="rgba(245, 158, 11, 0.08)"></use></g><defs><mask id="SvgjsMask3563"><rect width="3200" height="2880" fill="#ffffff"></rect></mask><g id="SvgjsG3572"><path d="M7.713 15.485C3.459 15.485 0 12.025 0 7.768 0 3.513 3.459 0.051 7.713 0.051S15.432 3.513 15.432 7.768c0 4.257-3.465 7.716-7.719 7.717z m0-1.91c3.201 0 5.81-2.604 5.81-5.809 0-3.199-2.61-5.807-5.81-5.807-3.202 0-5.804 2.609-5.804 5.807-0.001 3.206 2.602 5.809 5.804 5.809z"></path><path d="M7.753 8.787a0.574 0.574 0 0 1-0.554-0.042 0.578 0.578 0 0 1-0.259-0.399L6.931 3.862a0.58 0.58 0 0 1 1.162 0v3.478l2.975-1.4a0.578 0.578 0 0 1 0.773 0.275c0.138 0.292 0.011 0.637-0.276 0.774l-3.81 1.798z"></path></g><g id="SvgjsG3567"><path d="M11.986 8.245a46.749 46.749 0 0 1-0.521-0.411c-0.146-0.116-0.293-0.233-0.44-0.348-0.88-0.688-1.797-1.316-2.816-1.407A2.815 2.815 0 0 0 7.954 6.067c-0.086 0-0.171 0.011-0.255 0.018-1.022 0.093-1.942 0.717-2.826 1.408l0.093 0.073c0.108 0.085 0.213 0.168 0.32 0.252C6.165 7.137 7.021 6.576 7.954 6.576c0.93 0 1.784 0.558 2.66 1.236a35.098 35.098 0 0 1 0.535 0.421c0.142 0.113 0.283 0.226 0.426 0.338C12.532 9.32 13.531 10 14.658 10c0.437 0 0.854-0.104 1.257-0.273v-0.557c-0.409 0.197-0.825 0.32-1.257 0.32-0.934 0-1.792-0.563-2.672-1.245z"></path><path d="M11.574 7.496c0.029 0.023 0.059 0.046 0.088 0.07 0.109 0.087 0.216 0.17 0.325 0.256 0.318-0.246 0.635-0.476 0.952-0.67v1.37c0.17 0.111 0.34 0.214 0.51 0.301V6.878c0.315-0.147 0.634-0.248 0.96-0.283v2.537c0.078 0.01 0.157 0.018 0.237 0.018 0.091 0 0.183-0.009 0.273-0.021V6.592c0.34 0.037 0.67 0.144 0.996 0.3V6.336C15.514 6.17 15.099 6.067 14.664 6.067c-1.128 0-2.13 0.68-3.09 1.429z m-7.248 1.08c-0.034-0.027-0.068-0.053-0.102-0.08-0.104-0.083-0.207-0.162-0.31-0.245-0.877 0.678-1.733 1.238-2.665 1.238C0.82 9.49 0.407 9.36 0 9.152v0.562C0.401 9.891 0.815 10 1.249 10c1.124 0 2.122-0.677 3.077-1.423z"></path><path d="M0.989 9.133c0.084 0.011 0.17 0.019 0.254 0.02 0.086 0 0.171-0.008 0.256-0.02V6.592c0.329 0.035 0.65 0.136 0.967 0.285-0.002 0.012-0.007 0.023-0.007 0.036v1.903a5.818 5.818 0 0 0 0.51-0.303V7.152c0.487 0.3 0.971 0.684 1.467 1.08C5.525 9.101 6.652 10 7.948 10c1.123 0 2.121-0.675 3.078-1.42l-0.106-0.084c-0.103-0.082-0.205-0.161-0.306-0.242-0.313 0.242-0.622 0.466-0.934 0.658V7.564A5.816 5.816 0 0 0 9.17 7.261v1.893c0 0.01 0.004 0.019 0.005 0.029-0.316 0.149-0.637 0.252-0.965 0.288V6.937a1.97 1.97 0 0 0-0.267-0.02c-0.082 0-0.163 0.008-0.243 0.017v2.541c-0.33-0.035-0.652-0.136-0.969-0.283 0.002-0.013 0.006-0.024 0.006-0.039V7.248a5.629 5.629 0 0 0-0.51 0.302v1.368c-0.49-0.299-0.976-0.686-1.474-1.083C3.666 6.966 2.539 6.067 1.243 6.067c-0.432 0-0.844 0.096-1.243 0.251v0.55c0.324-0.144 0.652-0.244 0.989-0.278V9.133z"></path></g><g id="SvgjsG3573"><path d="M2.524 8.637H0.014V7.308h2.51v1.329zM3.656 4.576L1.884 2.804l0.935-0.935 1.772 1.772-0.935 0.935z m0 6.817l0.935 0.935-1.772 1.773-0.934-0.936 1.771-1.772z m4.997-8.884h-1.33V-0.002h1.33v2.511z m-1.33 10.952h1.33v2.51h-1.33v-2.509zM12.344 4.576l-0.96-0.935 1.796-1.772 0.935 0.935-1.772 1.772z m0 6.792l1.771 1.797-0.935 0.936-1.771-1.774 0.936-0.96z m3.643-4.06v1.329h-2.51V7.308h2.509z"></path><path d="M3.702 7.984a4.184 4.184 0 1 0 8.368 0 4.184 4.184 0 1 0-8.368 0"></path></g><g id="SvgjsG3570"><path d="M15.233 9.431c0.295 0 0.569-0.239 0.61-0.532 0 0 0.056-0.411 0.056-0.899s-0.056-0.899-0.056-0.899c-0.041-0.292-0.315-0.531-0.61-0.53h-1.524c-0.295 0-0.602-0.188-0.681-0.418s-0.188-0.967 0.021-1.176l1.078-1.077c0.209-0.209 0.225-0.565 0.036-0.792l-1.268-1.268c-0.227-0.189-0.583-0.173-0.792 0.036l-1.078 1.077c-0.208 0.209-0.556 0.293-0.772 0.187s-0.822-0.552-0.821-0.847V0.767c0-0.295-0.239-0.569-0.531-0.61 0 0-0.411-0.057-0.9-0.056s-0.899 0.057-0.899 0.056c-0.293 0.04-0.532 0.315-0.532 0.61v1.524c0 0.295-0.188 0.601-0.418 0.681s-0.967 0.188-1.176-0.021l-1.078-1.078C3.689 1.665 3.333 1.649 3.107 1.837l-1.268 1.268c-0.189 0.227-0.173 0.583 0.036 0.792l1.077 1.078c0.209 0.209 0.293 0.556 0.187 0.772s-0.552 0.822-0.847 0.822H0.767c-0.295 0-0.569 0.239-0.61 0.531 0 0-0.057 0.411-0.056 0.899s0.057 0.899 0.056 0.9c0.04 0.293 0.315 0.532 0.61 0.532h1.525c0.295 0 0.601 0.188 0.681 0.417 0.079 0.23 0.188 0.967-0.02 1.176l-1.078 1.077C1.667 12.311 1.651 12.667 1.84 12.893l1.267 1.268c0.227 0.189 0.583 0.173 0.792-0.036l1.077-1.077c0.209-0.208 0.556-0.292 0.772-0.187s0.821 0.553 0.822 0.848v1.524c0 0.295 0.239 0.569 0.532 0.61 0 0 0.411 0.057 0.899 0.057s0.899-0.056 0.899-0.057c0.293-0.04 0.531-0.315 0.532-0.609v-1.524c0-0.295 0.188-0.602 0.418-0.681 0.23-0.079 0.967-0.188 1.176 0.021l1.077 1.077c0.209 0.209 0.565 0.225 0.792 0.036l1.268-1.267c0.189-0.227 0.173-0.583-0.036-0.792l-1.078-1.077c-0.209-0.209-0.293-0.557-0.186-0.773 0.106-0.216 0.552-0.822 0.847-0.822h1.525zM8 10.892c-1.597 0-2.891-1.294-2.891-2.892 0-1.596 1.295-2.891 2.891-2.891S10.892 6.404 10.892 8 9.597 10.892 8 10.892z"></path></g><g id="SvgjsG3571"><path d="M3.394 6.906c0.819-0.002 1.483-0.667 1.487-1.488-0.004-0.821-0.669-1.486-1.487-1.487a1.485 1.485 0 0 0-1.487 1.487c-0.001 0.82 0.664 1.485 1.487 1.487z"></path><path d="M4.981 5.765v1.286H2.7c-1.103 0.008-1.105 1.425 0 1.423h2.993c0.438 0.002 0.711-0.351 0.712-0.748V5.765c0-1.072-1.421-1.072-1.424 0z m1.615-0.766H12.536c0.875-0.002 1.388 0.559 1.386 1.313v2.144H6.596V4.999z"></path><path d="M1.624 3.758c-0.002-1.17-1.625-1.17-1.624 0V13.137h1.66V10.719H14.287v2.4h1.615V5.875c0.004-1.234-1.637-1.234-1.633 0v2.891H1.624V3.758z"></path></g><g id="SvgjsG3564"><path d="M7.741 5.269c-0.003 0.523-0.481 1.084-1.101 1.084v8.856c0 1.261-1.714 1.261-1.716 0V6.354c-0.602 0-1.127-0.465-1.126-1.159V0.315c-0.001-0.423 0.612-0.44 0.616 0.017v3.606h0.51V0.299c0-0.389 0.59-0.414 0.591 0.016v3.623h0.526V0.307C6.044-0.103 6.618-0.12 6.616 0.323v3.615h0.526V0.307c-0.002-0.406 0.597-0.423 0.599 0.016v4.946zM12.309 1.449v13.76c0.002 1.229-1.715 1.211-1.717 0V9.746h-0.912V1.449c-0.001-1.932 2.631-1.932 2.629 0z"></path></g><g id="SvgjsG3577"><path d="M15.964 4.774l-1.312 10.327H10.223L8.916 4.774h5.408L15.395 1.04 16 1.21l-1.024 3.562 0.988 0.002zM8.29 10.788s0.166-1.502-2.131-1.502H2.5c-2.293 0-2.131 1.502-2.132 1.502h7.922zM0.368 13.595s-0.162 1.506 2.132 1.506h3.659c2.297 0 2.131-1.506 2.131-1.506H0.369z m7.578-0.727a0.68 0.68 0 0 0 0.68-0.68c0-0.372-0.304-0.676-0.68-0.676H0.68C0.306 11.512 0 11.816 0 12.188a0.682 0.682 0 0 0 0.68 0.68h7.266z"></path></g><g id="SvgjsG3565"><path d="M7.45 12.652S6.4 11.121 3.725 11.121C1.274 11.121 0 11.833 0 11.833V1.937s1.274-0.712 3.725-0.729C6.4 1.19 7.45 2.756 7.45 2.756V12.652z m1.087 0s1.05-1.531 3.725-1.531c2.451 0 3.725 0.712 3.725 0.713V1.937s-1.274-0.712-3.725-0.729c-2.675-0.017-3.725 1.548-3.725 1.548v9.896z"></path><path d="M8.012 15.733S6.4 13.411 3.725 13.411c-2.451 0-3.725 0.712-3.725 0.712v-1.186s1.274-0.712 3.725-0.729c2.675-0.018 4.287 2.34 4.287 2.34V15.733z m0 0s1.612-2.323 4.287-2.323c2.451 0 3.725 0.712 3.725 0.712v-1.185s-1.274-0.712-3.725-0.729c-2.675-0.019-4.287 2.339-4.287 2.339v1.185z"></path></g><g id="SvgjsG3578"><path d="M10.638 8.247l-4.284-0.705 0.615-0.438 1.029 0.143 1.027-0.143 1.613 1.143zM7.998 0.15c0.859 0 1.555 0.696 1.555 1.556 0 0.859-0.548 1.556-1.555 1.555-0.859 0-1.556-0.696-1.557-1.555 0-0.86 0.697-1.556 1.557-1.556z m0.387 11.242v3.759A0.849 0.849 0 0 0 9.234 16a0.849 0.849 0 0 0 0.849-0.849V11.392c0-0.468-0.38-0.849-0.849-0.849a0.85 0.85 0 0 0-0.849 0.849z m5.202 2.146a0.493 0.493 0 0 1-0.492 0.494h-2.604v-2.463h1.126V9.11a0.493 0.493 0 0 1 0.492-0.492h0.986a0.493 0.493 0 0 1 0.492 0.492v4.429z m-5.609 0.494H2.923a0.493 0.493 0 0 1-0.493-0.494V9.11c0-0.271 0.22-0.492 0.493-0.492h0.985a0.493 0.493 0 0 1 0.493 0.492v2.459h3.577v2.462zM5.316 8.72a0.85 0.85 0 0 0 0.7 0.976l3.709 0.611a0.85 0.85 0 0 0 0.976-0.7c0.076-0.463-0.237-0.9-0.7-0.975L6.292 8.02a0.85 0.85 0 0 0-0.976 0.7z"></path><path d="M7.998 4.499l2.016-0.329v1.418l0.996 0.748c0.096 0.096 0.057 0.207 0.034 0.238-0.057 0.075-0.163 0.09-0.237 0.034l-1.257-0.949a0.577 0.577 0 0 0-0.665 0.942l2.146 1.508c0.1 0.071 0.242 0.118 0.383 0.118 0.12 0 0.263-0.05 0.368-0.124 0.225-0.16 0.308-0.444 0.232-0.706L11.216 5.041c-0.213-0.585-0.75-1.274-1.556-1.275H6.334c-0.806 0-1.343 0.689-1.556 1.275l-0.797 2.356c-0.077 0.262 0.007 0.545 0.232 0.705 0.105 0.075 0.247 0.125 0.367 0.125 0.142 0 0.284-0.047 0.384-0.118l2.147-1.508a0.577 0.577 0 0 0-0.666-0.942l-1.257 0.949a0.17 0.17 0 0 1-0.237-0.034c-0.023-0.031-0.062-0.141 0.034-0.237 0 0 0.675-0.507 0.996-0.749v-1.418l2.017 0.329z"></path></g><g id="SvgjsG3569"><path d="M8.055 3.112c-0.496 0-0.902-0.407-0.902-0.906 0-0.504 0.407-0.908 0.902-0.907a0.904 0.904 0 0 1 0.907 0.907 0.906 0.906 0 0 1-0.907 0.906z m7.32 7.935l-0.483-3.009c-0.056-0.281-0.302-0.496-0.594-0.496-0.178 0-0.336 0.075-0.451 0.197L11.622 9.827c-0.037 0.031-0.072 0.067-0.104 0.112a0.649 0.649 0 0 0 0.136 0.901c0.054 0.04 0.114 0.067 0.174 0.092l0.559 0.185C11.848 12.638 10.533 13.795 8.917 14.115l0.004-9.878a2.203 2.203 0 0 0 1.339-2.031C10.26 0.986 9.275 0 8.054 0c-1.215 0-2.205 0.986-2.205 2.206 0 0.909 0.567 1.693 1.355 2.031l0.004 9.894c-1.651-0.297-3.016-1.464-3.568-3.013l0.562-0.186c0.06-0.024 0.119-0.051 0.175-0.092 0.285-0.213 0.349-0.617 0.135-0.901a0.542 0.542 0 0 0-0.103-0.112L2.184 7.74A0.605 0.605 0 0 0 1.736 7.542a0.61 0.61 0 0 0-0.598 0.496L0.655 11.047c-0.011 0.047-0.015 0.099-0.015 0.151a0.645 0.645 0 0 0 0.645 0.645c0.067 0 0.131-0.007 0.19-0.028l0.524-0.17C2.83 14.172 5.21 16 8.016 16s5.187-1.829 6.018-4.359l0.522 0.174c0.06 0.021 0.123 0.029 0.19 0.028a0.645 0.645 0 0 0 0.646-0.644 0.672 0.672 0 0 0-0.016-0.151z"></path></g><g id="SvgjsG3566"><path d="M9.412 5.113c1.273 0 2.378 0.701 2.988 1.734l3.596 0.004v-1.949c0-0.725-0.584-1.314-1.299-1.314H1.295C0.578 3.588 0 4.176 0 4.902l0.004 1.932 6.418 0.005c0.614-1.029 1.715-1.725 2.99-1.725M3.361 2.97h-1.192l-0.138 0.434h1.429l-0.099-0.434zM14.11 2.738h-1.587L12.242 3.408H14.368l-0.258-0.67zM8.662 3.177h-1.366V2.508h1.366v0.669zM9.914 2.24h-3.857l-0.795 1.176h5.38L9.914 2.24z m2.672 4.955c0.199 0.443 0.316 0.93 0.316 1.449 0 1.949-1.563 3.531-3.49 3.531-1.93 0-3.493-1.582-3.493-3.531 0-0.519 0.116-1.006 0.316-1.451H0V12.514c0 0.721 0.577 1.309 1.295 1.309h13.401c0.716 0 1.299-0.588 1.3-1.309L16 7.195H12.586z"></path><path d="M11.315 7.484a1.717 1.717 0 0 0-0.199-0.278c-0.408-0.496-1.018-0.822-1.704-0.823-0.69 0-1.299 0.324-1.707 0.818-0.075 0.09-0.144 0.182-0.203 0.283-0.205 0.34-0.33 0.734-0.329 1.16 0 1.246 1.002 2.258 2.237 2.258 1.23 0 2.232-1.013 2.232-2.259 0-0.427-0.122-0.819-0.329-1.16"></path></g><g id="SvgjsG3568"><path d="M16 11.289H0C0.001 12.447 0.884 12.984 1.594 12.987H14.406c0.847-0.003 1.59-0.669 1.594-1.698zM12.96 3.12H3.413v6.263c0.002 0.851 0.734 1.523 1.525 1.525h6.194c0.893-0.002 1.502-0.752 1.498-1.525v-0.519c1.768-0.002 3.05-1.328 3.05-2.876 0.001-1.575-1.256-2.869-2.72-2.868zM12.63 7.668V4.298h0.33c1.211-0.002 1.599 1.143 1.593 1.698 0.001 0.896-0.662 1.755-1.923 1.672z"></path></g><g id="SvgjsG3576"><path d="M0.005 7.414L16 0 8.581 15.995l-0.627-7.948z"></path></g><g id="SvgjsG3574"><path d="M12.865 12.36c-3.667 0-6.639-2.973-6.639-6.639 0-2.102 0.978-3.975 2.503-5.192-3.976 0.149-7.153 3.416-7.153 7.428 0 4.106 3.328 7.434 7.435 7.434 2.66 0 4.993-1.399 6.308-3.502a6.601 6.601 0 0 1-2.455 0.471z"></path></g><g id="SvgjsG3575"><path d="M13.165 5.485L5.295 15.96l1.814-7.368-4.222 0.071L9.733 0 7.677 5.489l5.488-0.004z" fill-rule="evenodd"></path></g><g id="SvgjsG3579"><use xlink:href="#SvgjsG3564" transform="translate(0, 0) scale(0.9)" fill="rgba(245, 158, 11, 0.08)"></use><use xlink:href="#SvgjsG3565" transform="translate(0, 21.6) scale(0.9)" fill="rgba(245, 158, 11, 0.08)"></use><use xlink:href="#SvgjsG3566" transform="translate(0, 43.2) scale(0.9)" fill="rgba(245, 158, 11, 0.08)"></use><use xlink:href="#SvgjsG3567" transform="translate(0, 64.80000000000001) scale(0.9)" fill="rgba(245, 158, 11, 0.08)"></use><use xlink:href="#SvgjsG3568" transform="translate(0, 86.4) scale(0.9)" fill="rgba(245, 158, 11, 0.08)"></use><use xlink:href="#SvgjsG3569" transform="translate(0, 108) scale(0.9)" fill="rgba(245, 158, 11, 0.08)"></use><use xlink:href="#SvgjsG3570" transform="translate(0, 129.60000000000002) scale(0.9)" fill="rgba(245, 158, 11, 0.08)"></use><use xlink:href="#SvgjsG3571" transform="translate(0, 151.20000000000002) scale(0.9)" fill="rgba(245, 158, 11, 0.08)"></use><use xlink:href="#SvgjsG3572" transform="translate(0, 172.8) scale(0.9)" fill="rgba(245, 158, 11, 0.08)"></use><use xlink:href="#SvgjsG3573" transform="translate(0, 194.4) scale(0.9)" fill="rgba(245, 158, 11, 0.08)"></use><use xlink:href="#SvgjsG3573" transform="translate(21.6, 0) scale(0.9)" fill="rgba(245, 158, 11, 0.08)"></use><use xlink:href="#SvgjsG3569" transform="translate(21.6, 21.6) scale(0.9)" fill="rgba(245, 158, 11, 0.08)"></use><use xlink:href="#SvgjsG3574" transform="translate(21.6, 43.2) scale(0.9)" fill="rgba(245, 158, 11, 0.08)"></use><use xlink:href="#SvgjsG3567" transform="translate(21.6, 64.80000000000001) scale(0.9)" fill="rgba(245, 158, 11, 0.08)"></use><use xlink:href="#SvgjsG3571" transform="translate(21.6, 86.4) scale(0.9)" fill="rgba(245, 158, 11, 0.08)"></use><use xlink:href="#SvgjsG3572" transform="translate(21.6, 108) scale(0.9)" fill="rgba(245, 158, 11, 0.08)"></use><use xlink:href="#SvgjsG3575" transform="translate(21.6, 129.60000000000002) scale(0.9)" fill="rgba(245, 158, 11, 0.08)"></use><use xlink:href="#SvgjsG3567" transform="translate(21.6, 151.20000000000002) scale(0.9)" fill="rgba(245, 158, 11, 0.08)"></use><use xlink:href="#SvgjsG3565" transform="translate(21.6, 172.8) scale(0.9)" fill="rgba(245, 158, 11, 0.08)"></use><use xlink:href="#SvgjsG3573" transform="translate(21.6, 194.4) scale(0.9)" fill="rgba(245, 158, 11, 0.08)"></use><use xlink:href="#SvgjsG3573" transform="translate(43.2, 0) scale(0.9)" fill="rgba(245, 158, 11, 0.08)"></use><use xlink:href="#SvgjsG3572" transform="translate(43.2, 21.6) scale(0.9)" fill="rgba(245, 158, 11, 0.08)"></use><use xlink:href="#SvgjsG3576" transform="translate(43.2, 43.2) scale(0.9)" fill="rgba(245, 158, 11, 0.08)"></use><use xlink:href="#SvgjsG3566" transform="translate(43.2, 64.80000000000001) scale(0.9)" fill="rgba(245, 158, 11, 0.08)"></use><use xlink:href="#SvgjsG3566" transform="translate(43.2, 86.4) scale(0.9)" fill="rgba(245, 158, 11, 0.08)"></use><use xlink:href="#SvgjsG3568" transform="translate(43.2, 108) scale(0.9)" fill="rgba(245, 158, 11, 0.08)"></use><use xlink:href="#SvgjsG3574" transform="translate(43.2, 129.60000000000002) scale(0.9)" fill="rgba(245, 158, 11, 0.08)"></use><use xlink:href="#SvgjsG3577" transform="translate(43.2, 151.20000000000002) scale(0.9)" fill="rgba(245, 158, 11, 0.08)"></use><use xlink:href="#SvgjsG3565" transform="translate(43.2, 172.8) scale(0.9)" fill="rgba(245, 158, 11, 0.08)"></use><use xlink:href="#SvgjsG3570" transform="translate(43.2, 194.4) scale(0.9)" fill="rgba(245, 158, 11, 0.08)"></use><use xlink:href="#SvgjsG3568" transform="translate(64.80000000000001, 0) scale(0.9)" fill="rgba(245, 158, 11, 0.08)"></use><use xlink:href="#SvgjsG3566" transform="translate(64.80000000000001, 21.6) scale(0.9)" fill="rgba(245, 158, 11, 0.08)"></use><use xlink:href="#SvgjsG3576" transform="translate(64.80000000000001, 43.2) scale(0.9)" fill="rgba(245, 158, 11, 0.08)"></use><use xlink:href="#SvgjsG3578" transform="translate(64.80000000000001, 64.80000000000001) scale(0.9)" fill="rgba(245, 158, 11, 0.08)"></use><use xlink:href="#SvgjsG3564" transform="translate(64.80000000000001, 86.4) scale(0.9)" fill="rgba(245, 158, 11, 0.08)"></use><use xlink:href="#SvgjsG3568" transform="translate(64.80000000000001, 108) scale(0.9)" fill="rgba(245, 158, 11, 0.08)"></use><use xlink:href="#SvgjsG3571" transform="translate(64.80000000000001, 129.60000000000002) scale(0.9)" fill="rgba(245, 158, 11, 0.08)"></use><use xlink:href="#SvgjsG3570" transform="translate(64.80000000000001, 151.20000000000002) scale(0.9)" fill="rgba(245, 158, 11, 0.08)"></use><use xlink:href="#SvgjsG3577" transform="translate(64.80000000000001, 172.8) scale(0.9)" fill="rgba(245, 158, 11, 0.08)"></use><use xlink:href="#SvgjsG3570" transform="translate(64.80000000000001, 194.4) scale(0.9)" fill="rgba(245, 158, 11, 0.08)"></use><use xlink:href="#SvgjsG3578" transform="translate(86.4, 0) scale(0.9)" fill="rgba(245, 158, 11, 0.08)"></use><use xlink:href="#SvgjsG3567" transform="translate(86.4, 21.6) scale(0.9)" fill="rgba(245, 158, 11, 0.08)"></use><use xlink:href="#SvgjsG3567" transform="translate(86.4, 43.2) scale(0.9)" fill="rgba(245, 158, 11, 0.08)"></use><use xlink:href="#SvgjsG3565" transform="translate(86.4, 64.80000000000001) scale(0.9)" fill="rgba(245, 158, 11, 0.08)"></use><use xlink:href="#SvgjsG3567" transform="translate(86.4, 86.4) scale(0.9)" fill="rgba(245, 158, 11, 0.08)"></use><use xlink:href="#SvgjsG3578" transform="translate(86.4, 108) scale(0.9)" fill="rgba(245, 158, 11, 0.08)"></use><use xlink:href="#SvgjsG3575" transform="translate(86.4, 129.60000000000002) scale(0.9)" fill="rgba(245, 158, 11, 0.08)"></use><use xlink:href="#SvgjsG3575" transform="translate(86.4, 151.20000000000002) scale(0.9)" fill="rgba(245, 158, 11, 0.08)"></use><use xlink:href="#SvgjsG3568" transform="translate(86.4, 172.8) scale(0.9)" fill="rgba(245, 158, 11, 0.08)"></use><use xlink:href="#SvgjsG3570" transform="translate(86.4, 194.4) scale(0.9)" fill="rgba(245, 158, 11, 0.08)"></use><use xlink:href="#SvgjsG3571" transform="translate(108, 0) scale(0.9)" fill="rgba(245, 158, 11, 0.08)"></use><use xlink:href="#SvgjsG3571" transform="translate(108, 21.6) scale(0.9)" fill="rgba(245, 158, 11, 0.08)"></use><use xlink:href="#SvgjsG3577" transform="translate(108, 43.2) scale(0.9)" fill="rgba(245, 158, 11, 0.08)"></use><use xlink:href="#SvgjsG3569" transform="translate(108, 64.80000000000001) scale(0.9)" fill="rgba(245, 158, 11, 0.08)"></use><use xlink:href="#SvgjsG3574" transform="translate(108, 86.4) scale(0.9)" fill="rgba(245, 158, 11, 0.08)"></use><use xlink:href="#SvgjsG3568" transform="translate(108, 108) scale(0.9)" fill="rgba(245, 158, 11, 0.08)"></use><use xlink:href="#SvgjsG3577" transform="translate(108, 129.60000000000002) scale(0.9)" fill="rgba(245, 158, 11, 0.08)"></use><use xlink:href="#SvgjsG3574" transform="translate(108, 151.20000000000002) scale(0.9)" fill="rgba(245, 158, 11, 0.08)"></use><use xlink:href="#SvgjsG3575" transform="translate(108, 172.8) scale(0.9)" fill="rgba(245, 158, 11, 0.08)"></use><use xlink:href="#SvgjsG3567" transform="translate(108, 194.4) scale(0.9)" fill="rgba(245, 158, 11, 0.08)"></use><use xlink:href="#SvgjsG3572" transform="translate(129.60000000000002, 0) scale(0.9)" fill="rgba(245, 158, 11, 0.08)"></use><use xlink:href="#SvgjsG3574" transform="translate(129.60000000000002, 21.6) scale(0.9)" fill="rgba(245, 158, 11, 0.08)"></use><use xlink:href="#SvgjsG3574" transform="translate(129.60000000000002, 43.2) scale(0.9)" fill="rgba(245, 158, 11, 0.08)"></use><use xlink:href="#SvgjsG3575" transform="translate(129.60000000000002, 64.80000000000001) scale(0.9)" fill="rgba(245, 158, 11, 0.08)"></use><use xlink:href="#SvgjsG3572" transform="translate(129.60000000000002, 86.4) scale(0.9)" fill="rgba(245, 158, 11, 0.08)"></use><use xlink:href="#SvgjsG3574" transform="translate(129.60000000000002, 108) scale(0.9)" fill="rgba(245, 158, 11, 0.08)"></use><use xlink:href="#SvgjsG3566" transform="translate(129.60000000000002, 129.60000000000002) scale(0.9)" fill="rgba(245, 158, 11, 0.08)"></use><use xlink:href="#SvgjsG3576" transform="translate(129.60000000000002, 151.20000000000002) scale(0.9)" fill="rgba(245, 158, 11, 0.08)"></use><use xlink:href="#SvgjsG3576" transform="translate(129.60000000000002, 172.8) scale(0.9)" fill="rgba(245, 158, 11, 0.08)"></use><use xlink:href="#SvgjsG3570" transform="translate(129.60000000000002, 194.4) scale(0.9)" fill="rgba(245, 158, 11, 0.08)"></use><use xlink:href="#SvgjsG3564" transform="translate(151.20000000000002, 0) scale(0.9)" fill="rgba(245, 158, 11, 0.08)"></use><use xlink:href="#SvgjsG3566" transform="translate(151.20000000000002, 21.6) scale(0.9)" fill="rgba(245, 158, 11, 0.08)"></use><use xlink:href="#SvgjsG3578" transform="translate(151.20000000000002, 43.2) scale(0.9)" fill="rgba(245, 158, 11, 0.08)"></use><use xlink:href="#SvgjsG3567" transform="translate(151.20000000000002, 64.80000000000001) scale(0.9)" fill="rgba(245, 158, 11, 0.08)"></use><use xlink:href="#SvgjsG3575" transform="translate(151.20000000000002, 86.4) scale(0.9)" fill="rgba(245, 158, 11, 0.08)"></use><use xlink:href="#SvgjsG3569" transform="translate(151.20000000000002, 108) scale(0.9)" fill="rgba(245, 158, 11, 0.08)"></use><use xlink:href="#SvgjsG3575" transform="translate(151.20000000000002, 129.60000000000002) scale(0.9)" fill="rgba(245, 158, 11, 0.08)"></use><use xlink:href="#SvgjsG3576" transform="translate(151.20000000000002, 151.20000000000002) scale(0.9)" fill="rgba(245, 158, 11, 0.08)"></use><use xlink:href="#SvgjsG3571" transform="translate(151.20000000000002, 172.8) scale(0.9)" fill="rgba(245, 158, 11, 0.08)"></use><use xlink:href="#SvgjsG3572" transform="translate(151.20000000000002, 194.4) scale(0.9)" fill="rgba(245, 158, 11, 0.08)"></use><use xlink:href="#SvgjsG3575" transform="translate(172.8, 0) scale(0.9)" fill="rgba(245, 158, 11, 0.08)"></use><use xlink:href="#SvgjsG3577" transform="translate(172.8, 21.6) scale(0.9)" fill="rgba(245, 158, 11, 0.08)"></use><use xlink:href="#SvgjsG3567" transform="translate(172.8, 43.2) scale(0.9)" fill="rgba(245, 158, 11, 0.08)"></use><use xlink:href="#SvgjsG3574" transform="translate(172.8, 64.80000000000001) scale(0.9)" fill="rgba(245, 158, 11, 0.08)"></use><use xlink:href="#SvgjsG3569" transform="translate(172.8, 86.4) scale(0.9)" fill="rgba(245, 158, 11, 0.08)"></use><use xlink:href="#SvgjsG3571" transform="translate(172.8, 108) scale(0.9)" fill="rgba(245, 158, 11, 0.08)"></use><use xlink:href="#SvgjsG3572" transform="translate(172.8, 129.60000000000002) scale(0.9)" fill="rgba(245, 158, 11, 0.08)"></use><use xlink:href="#SvgjsG3564" transform="translate(172.8, 151.20000000000002) scale(0.9)" fill="rgba(245, 158, 11, 0.08)"></use><use xlink:href="#SvgjsG3576" transform="translate(172.8, 172.8) scale(0.9)" fill="rgba(245, 158, 11, 0.08)"></use><use xlink:href="#SvgjsG3575" transform="translate(172.8, 194.4) scale(0.9)" fill="rgba(245, 158, 11, 0.08)"></use><use xlink:href="#SvgjsG3577" transform="translate(194.4, 0) scale(0.9)" fill="rgba(245, 158, 11, 0.08)"></use><use xlink:href="#SvgjsG3566" transform="translate(194.4, 21.6) scale(0.9)" fill="rgba(245, 158, 11, 0.08)"></use><use xlink:href="#SvgjsG3568" transform="translate(194.4, 43.2) scale(0.9)" fill="rgba(245, 158, 11, 0.08)"></use><use xlink:href="#SvgjsG3573" transform="translate(194.4, 64.80000000000001) scale(0.9)" fill="rgba(245, 158, 11, 0.08)"></use><use xlink:href="#SvgjsG3569" transform="translate(194.4, 86.4) scale(0.9)" fill="rgba(245, 158, 11, 0.08)"></use><use xlink:href="#SvgjsG3568" transform="translate(194.4, 108) scale(0.9)" fill="rgba(245, 158, 11, 0.08)"></use><use xlink:href="#SvgjsG3577" transform="translate(194.4, 129.60000000000002) scale(0.9)" fill="rgba(245, 158, 11, 0.08)"></use><use xlink:href="#SvgjsG3576" transform="translate(194.4, 151.20000000000002) scale(0.9)" fill="rgba(245, 158, 11, 0.08)"></use><use xlink:href="#SvgjsG3576" transform="translate(194.4, 172.8) scale(0.9)" fill="rgba(245, 158, 11, 0.08)"></use><use xlink:href="#SvgjsG3571" transform="translate(194.4, 194.4) scale(0.9)" fill="rgba(245, 158, 11, 0.08)"></use></g></defs></svg>