<svg xmlns="http://www.w3.org/2000/svg" version="1.1" xmlns:xlink="http://www.w3.org/1999/xlink" xmlns:svgjs="http://svgjs.dev/svgjs" width="5400" height="32000" preserveAspectRatio="none" viewBox="0 0 5400 32000"><g mask="url(&quot;#SvgjsMask1047&quot;)" fill="none"><path d="M1674.73 5977.48L2144.38 5977.48L2144.38 6447.13L1674.73 6447.13z" fill="rgba(34, 211, 238, 0.17)"></path><path d="M3704.64 180.62L4213.87 180.62L4213.87 689.85L3704.64 689.85z" stroke="rgba(34, 211, 238, 0.17)"></path><path d="M578.51 19619.51 a84.24 84.24 0 1 0 168.48 0 a84.24 84.24 0 1 0 -168.48 0z" stroke="rgba(34, 211, 238, 0.17)"></path><path d="M689.66 12580.97L814.73 12580.97L814.73 12611.91L689.66 12611.91z" stroke="rgba(251, 191, 36, 1)"></path><path d="M1884.69 17300.65 a251.97 251.97 0 1 0 503.94 0 a251.97 251.97 0 1 0 -503.94 0z" stroke="rgba(34, 211, 238, 0.17)"></path><path d="M1205.33 16206.24a91.28 91.28 0 1 0 125.19-132.88z" fill="rgba(217, 70, 239, 0.14901960784313725)"></path><path d="M4121.26 27195.07 a127.07 127.07 0 1 0 254.14 0 a127.07 127.07 0 1 0 -254.14 0z" fill="rgba(251, 191, 36, 1)"></path><path d="M3894.19 27363.22L4329.98 27363.22L4329.98 27496.91L3894.19 27496.91z" stroke="rgba(217, 70, 239, 0.14901960784313725)"></path><path d="M4734.58 31016.63L4894.7 31016.63L4894.7 31394.23L4734.58 31394.23z" stroke="rgba(34, 211, 238, 0.17)"></path><path d="M2653.42 7496.97L2741.58 7496.97L2741.58 7585.13L2653.42 7585.13z" fill="rgba(34, 211, 238, 0.17)"></path><path d="M2742.12 12376.15L2927.26 12376.15L2927.26 12824.24L2742.12 12824.24z" stroke="rgba(251, 191, 36, 1)"></path><path d="M3764.05 3634.04 a239.65 239.65 0 1 0 479.3 0 a239.65 239.65 0 1 0 -479.3 0z" stroke="rgba(34, 211, 238, 0.17)"></path><path d="M3666.4 5255.53L3822.23 5255.53L3822.23 5411.36L3666.4 5411.36z" stroke="rgba(251, 191, 36, 1)"></path><path d="M4358.22 292.39 a470.11 470.11 0 1 0 940.22 0 a470.11 470.11 0 1 0 -940.22 0z" fill="rgba(217, 70, 239, 0.14901960784313725)"></path><path d="M3040.69 23205.56L3311.36 23205.56L3311.36 23476.23L3040.69 23476.23z" fill="rgba(217, 70, 239, 0.14901960784313725)"></path><path d="M1711.5 26848.98a108.16 108.16 0 1 0 91.32 196.1z" fill="rgba(217, 70, 239, 0.14901960784313725)"></path><path d="M3713.77 24779.77L4122.59 24779.77L4122.59 25188.59L3713.77 25188.59z" fill="rgba(34, 211, 238, 0.17)"></path><path d="M2723.32 11987.9L2984.39 11987.9L2984.39 12449.25L2723.32 12449.25z" fill="rgba(251, 191, 36, 1)"></path><path d="M1841.58 22922.84 a186.91 186.91 0 1 0 373.82 0 a186.91 186.91 0 1 0 -373.82 0z" fill="rgba(34, 211, 238, 0.17)"></path><path d="M1708.58 2636.64L2206.37 2636.64L2206.37 3134.43L1708.58 3134.43z" fill="rgba(217, 70, 239, 0.14901960784313725)"></path><path d="M4545.96 9331.36L4866.94 9331.36L4866.94 9336.3L4545.96 9336.3z" fill="rgba(251, 191, 36, 1)"></path><path d="M851.3 19247.43a443.7 443.7 0 1 0 708.5 534.33z" fill="rgba(217, 70, 239, 0.14901960784313725)"></path><path d="M701.38 19630.08L1029.11 19630.08L1029.11 19796.28L701.38 19796.28z" fill="rgba(251, 191, 36, 1)"></path><path d="M1552.75 16942.79 a354.94 354.94 0 1 0 709.88 0 a354.94 354.94 0 1 0 -709.88 0z" stroke="rgba(34, 211, 238, 0.17)"></path><path d="M1515.61 17087.22a413.03 413.03 0 1 0 826.02 7.62z" fill="rgba(251, 191, 36, 1)"></path><path d="M3140.14 9906.53 a349.82 349.82 0 1 0 699.64 0 a349.82 349.82 0 1 0 -699.64 0z" fill="rgba(217, 70, 239, 0.14901960784313725)"></path><path d="M2077.57 19812.13 a254.56 254.56 0 1 0 509.12 0 a254.56 254.56 0 1 0 -509.12 0z" fill="rgba(34, 211, 238, 0.17)"></path><path d="M3738.53 9253.52L3919.73 9253.52L3919.73 9434.72L3738.53 9434.72z" fill="rgba(34, 211, 238, 0.17)"></path><path d="M2956.19 12271.91L3286.85 12271.91L3286.85 12602.57L2956.19 12602.57z" fill="rgba(217, 70, 239, 0.14901960784313725)"></path><path d="M5086.55 18123.57L5288.92 18123.57L5288.92 18325.94L5086.55 18325.94z" fill="rgba(34, 211, 238, 0.17)"></path><path d="M3466.01 8295.36 a263.97 263.97 0 1 0 527.94 0 a263.97 263.97 0 1 0 -527.94 0z" fill="rgba(251, 191, 36, 1)"></path><path d="M2611.25 30822.5 a188.05 188.05 0 1 0 376.1 0 a188.05 188.05 0 1 0 -376.1 0z" stroke="rgba(251, 191, 36, 1)"></path><path d="M1364.29 2788.67a23.68 23.68 0 1 0 47.34-1.04z" stroke="rgba(217, 70, 239, 0.14901960784313725)"></path><path d="M3373.13 27147.66L3734.72 27147.66L3734.72 27509.25L3373.13 27509.25z" stroke="rgba(217, 70, 239, 0.14901960784313725)"></path><path d="M325.18 1056.27 a451.48 451.48 0 1 0 902.96 0 a451.48 451.48 0 1 0 -902.96 0z" stroke="rgba(34, 211, 238, 0.17)"></path><path d="M215.51 26097.82a519.34 519.34 0 1 0 704.8-762.96z" fill="rgba(251, 191, 36, 1)"></path><path d="M2651.32 9759.73L3174.06 9759.73L3174.06 10282.47L2651.32 10282.47z" fill="rgba(34, 211, 238, 0.17)"></path><path d="M2164.28 10787.62L2224.13 10787.62L2224.13 10830.09L2164.28 10830.09z" fill="rgba(217, 70, 239, 0.14901960784313725)"></path><path d="M1364.62 16103.48a241.54 241.54 0 1 0 481.74 36.02z" fill="rgba(34, 211, 238, 0.17)"></path><path d="M3253.62 26411.11L3375.5 26411.11L3375.5 26532.99L3253.62 26532.99z" fill="rgba(251, 191, 36, 1)"></path><path d="M4568.35 9075L4976.67 9075L4976.67 9483.32L4568.35 9483.32z" stroke="rgba(217, 70, 239, 0.14901960784313725)"></path><path d="M1589.29 6825.21L1864.62 6825.21L1864.62 7100.54L1589.29 7100.54z" fill="rgba(217, 70, 239, 0.14901960784313725)"></path><path d="M604.05 4706.46L1131.64 4706.46L1131.64 5234.05L604.05 5234.05z" stroke="rgba(217, 70, 239, 0.14901960784313725)"></path><path d="M1322.63 23230.09a17.5 17.5 0 1 0 28.08-20.9z" stroke="rgba(34, 211, 238, 0.17)"></path><path d="M2405.21 29033.16a170.08 170.08 0 1 0 339.72-17.38z" fill="rgba(34, 211, 238, 0.17)"></path><path d="M1311.6 7937.24a211.58 211.58 0 1 0-422.8-17.31z" stroke="rgba(34, 211, 238, 0.17)"></path><path d="M1.69 2131.9L300.84 2131.9L300.84 2431.05L1.69 2431.05z" stroke="rgba(34, 211, 238, 0.17)"></path><path d="M2655.65 7341.18 a87.37 87.37 0 1 0 174.74 0 a87.37 87.37 0 1 0 -174.74 0z" fill="rgba(217, 70, 239, 0.14901960784313725)"></path><path d="M1088.98 22664.61L1468.1 22664.61L1468.1 23043.73L1088.98 23043.73z" stroke="rgba(217, 70, 239, 0.14901960784313725)"></path><path d="M3638.55 3685.03a511.93 511.93 0 1 0 1001.8-211.38z" fill="rgba(34, 211, 238, 0.17)"></path><path d="M1109.34 5020.27 a136.89 136.89 0 1 0 273.78 0 a136.89 136.89 0 1 0 -273.78 0z" fill="rgba(251, 191, 36, 1)"></path><path d="M311.15 10877.15a41.8 41.8 0 1 0 76.08 34.66z" fill="rgba(217, 70, 239, 0.14901960784313725)"></path><path d="M3443.88 27182.87L3876.57 27182.87L3876.57 27328.12L3443.88 27328.12z" fill="rgba(251, 191, 36, 1)"></path><path d="M-82.3 6324.24 a130.33 130.33 0 1 0 260.66 0 a130.33 130.33 0 1 0 -260.66 0z" fill="rgba(217, 70, 239, 0.14901960784313725)"></path><path d="M1243.36 24490.73L1661.42 24490.73L1661.42 25012.22L1243.36 25012.22z" fill="rgba(34, 211, 238, 0.17)"></path><path d="M2503.67 14503.6a14.84 14.84 0 1 0-26.18 13.98z" stroke="rgba(217, 70, 239, 0.14901960784313725)"></path><path d="M2586.91 6703.32a159.42 159.42 0 1 0 207.23 242.31z" fill="rgba(34, 211, 238, 0.17)"></path><path d="M2105.9 27645.16L2232.11 27645.16L2232.11 27700.73L2105.9 27700.73z" stroke="rgba(34, 211, 238, 0.17)"></path><path d="M-67.62 1339.43 a402.34 402.34 0 1 0 804.68 0 a402.34 402.34 0 1 0 -804.68 0z" fill="rgba(34, 211, 238, 0.17)"></path><path d="M2045.23 26949.55 a104.48 104.48 0 1 0 208.96 0 a104.48 104.48 0 1 0 -208.96 0z" fill="rgba(34, 211, 238, 0.17)"></path><path d="M3475.85 4729.29L3626.87 4729.29L3626.87 5139.01L3475.85 5139.01z" stroke="rgba(251, 191, 36, 1)"></path><path d="M5133.07 9286.66a317.15 317.15 0 1 0-96.25-626.95z" fill="rgba(251, 191, 36, 1)"></path><path d="M1726.88 3987.54a394.08 394.08 0 1 0 149.07 773.93z" stroke="rgba(34, 211, 238, 0.17)"></path><path d="M4919.89 4508.88L5304.73 4508.88L5304.73 4771.72L4919.89 4771.72z" stroke="rgba(217, 70, 239, 0.14901960784313725)"></path><path d="M3041.39 13757.54 a128.06 128.06 0 1 0 256.12 0 a128.06 128.06 0 1 0 -256.12 0z" fill="rgba(251, 191, 36, 1)"></path><path d="M4811.17 18669.95L4879.94 18669.95L4879.94 18918.38L4811.17 18918.38z" stroke="rgba(34, 211, 238, 0.17)"></path><path d="M1074.94 512.57a208.84 208.84 0 1 0 293.32 297.35z" fill="rgba(251, 191, 36, 1)"></path><path d="M4450.98 21612.63 a170.68 170.68 0 1 0 341.36 0 a170.68 170.68 0 1 0 -341.36 0z" stroke="rgba(34, 211, 238, 0.17)"></path><path d="M62.38 29441.97 a255.84 255.84 0 1 0 511.68 0 a255.84 255.84 0 1 0 -511.68 0z" fill="rgba(217, 70, 239, 0.14901960784313725)"></path><path d="M4503.7 271.13L4722.11 271.13L4722.11 403.24L4503.7 403.24z" stroke="rgba(251, 191, 36, 1)"></path><path d="M2347.41 19532.25 a346.85 346.85 0 1 0 693.7 0 a346.85 346.85 0 1 0 -693.7 0z" fill="rgba(34, 211, 238, 0.17)"></path><path d="M52.64 27012.03a512.4 512.4 0 1 0 175.12-1009.72z" stroke="rgba(34, 211, 238, 0.17)"></path><path d="M2758.46 22006.08a447.37 447.37 0 1 0-879.32 165.42z" stroke="rgba(34, 211, 238, 0.17)"></path><path d="M2513.52 4934.31L2849.19 4934.31L2849.19 5269.98L2513.52 5269.98z" stroke="rgba(251, 191, 36, 1)"></path><path d="M3896.97 7301.19a491.9 491.9 0 1 0-535.74 825.14z" stroke="rgba(217, 70, 239, 0.14901960784313725)"></path></g><defs><mask id="SvgjsMask1047"><rect width="5400" height="32000" fill="#ffffff"></rect></mask></defs></svg>